<svg width="80" height="80" xmlns="http://www.w3.org/2000/svg" version="1.1">
 <title>atlas, greek, god, earth, holding, sky</title>

 <g>
  <title>Layer 1</title>
  <ellipse ry="37.93706" rx="38" id="svg_4" cy="40" cx="40" stroke="#000" fill="#000000"/>
  <g id="svg_1">
   <g id="svg_2">
    <path id="svg_3" d="m40.0012,43.99874c-2.76142,0 -5,-2.23858 -5,-5c0,-2.76142 2.23858,-5 5,-5c2.76142,0 5,2.23858 5,5c0,2.76142 -2.23858,5 -5,5zm0,-2c1.65685,0 3,-1.34315 3,-3c0,-1.65685 -1.34315,-3 -3,-3c-1.65685,0 -3,1.34315 -3,3c0,1.65685 1.34315,3 3,3zm0,-12c-6.35127,0 -11.5,-5.14873 -11.5,-11.5c0,-6.35127 5.14873,-11.5 11.5,-11.5c6.35127,0 11.5,5.14873 11.5,11.5c0,6.35127 -5.14873,11.5 -11.5,11.5zm-6.76027,-18.17449l3.46738,3.46738c0.10977,0.10978 0.19248,0.2436 0.24157,0.39088l2,6c0.10727,0.32181 0.04409,0.67605 -0.16781,0.94092l-3.36048,4.20061c1.35814,0.74869 2.91913,1.1747 4.57961,1.1747c0.69445,0 1.37149,-0.07451 2.02357,-0.21598c0.00435,-0.0196 0.00932,-0.03918 0.01491,-0.05874l1.8808,-6.58283l-2.77677,-4.62795c-0.23609,-0.39348 -0.17408,-0.89714 0.15038,-1.22161l4.39939,-4.39938c-1.58643,-1.1891 -3.5571,-1.89351 -5.69228,-1.89351c-2.64517,0 -5.03784,1.08108 -6.76027,2.82551l0,0zm-1.25528,1.57315c-0.93985,1.47368 -1.48445,3.22391 -1.48445,5.10134c0,2.8664 1.26948,5.43629 3.27687,7.17813l3.10241,-3.87801l-1.75331,-5.25994l-3.14152,-3.14152zm15.1747,-1.14359l-3.89995,3.89994l2.59829,4.33049c0.14241,0.23734 0.18007,0.52309 0.10403,0.78922l-1.62249,5.67873c3.06466,-1.57622 5.16097,-4.77002 5.16097,-8.45345c0,-2.3907 -0.88308,-4.57515 -2.34085,-6.24493zm-8.15915,36.71071c-4.21824,-0.29337 -7.53573,-2.47098 -9.86378,-6.46191c-0.08921,-0.15294 -0.13622,-0.32682 -0.13622,-0.50387l0,-11c0,-0.55228 0.44772,-1 1,-1c0.55228,0 1,0.44772 1,1l0,10.72527c2.14744,3.54426 5.1127,5.27473 9,5.27473c3.8873,0 6.85256,-1.73047 9,-5.27473l0,-10.72527c0,-0.55228 0.44772,-1 1,-1c0.55228,0 1,0.44772 1,1l0,11c0,0.17705 -0.04701,0.35093 -0.13622,0.50387c-2.32805,3.99093 -5.64554,6.16854 -9.86378,6.46191l0,6.77509l4.87416,8.77349c0.08253,0.14855 0.12584,0.3157 0.12584,0.48564l0,7c0,0.55228 -0.44772,1 -1,1c-0.55228,0 -1,-0.44772 -1,-1l0,-6.74087l-4,-7.2l-4,7.2l0,6.74087c0,0.55228 -0.44772,1 -1,1c-0.55228,0 -1,-0.44772 -1,-1l0,-7c0,-0.16994 0.04331,-0.33709 0.12584,-0.48564l4.87416,-8.77349l0,-6.77509l0,0z" fill="white"/>
   </g>
  </g>
 </g>
</svg>